<?xml version="1.0" encoding="UTF-8"?>
<svg id="_图层_2" data-name="图层 2" xmlns="http://www.w3.org/2000/svg" viewBox="0 0 1000 1000">
  <defs>
    <style>
      .cls-1 {
        fill: #fff;
      }

      .cls-2 {
        fill: #16c59c;
      }
    </style>
  </defs>
  <g id="_图层_1-2" data-name="图层 1">
    <circle class="cls-2" cx="500" cy="500" r="500"/>
    <path class="cls-1" d="M718.82,345.09h0c-19.68,19.47-50.73,21.75-72.84,5.08-40.48-30.53-85.75-45.79-135.8-45.79-56.83,0-104.41,18.84-142.77,56.51-38.36,37.67-57.54,83.46-57.54,137.34s19.9,102.95,59.71,141.66c39.81,38.72,88.91,58.08,147.31,58.08,37.97,0,69.99-7.98,96.05-23.94,26.06-15.95,47.07-40.94,63.05-74.95h-117.96c-27.18,0-49.2-22.03-49.2-49.2h0c0-29.82,24.18-54,54-54h212.04c13.57,0,24.69,10.77,25.13,24.33h0c0,50.49-13.08,98.37-39.24,143.62-26.16,45.26-60.04,79.8-101.63,103.6-41.6,23.8-90.39,35.71-146.37,35.71-59.91,0-113.35-13.02-160.3-39.04-46.96-26.03-84.11-63.11-111.45-111.25-27.34-48.13-41.01-100.07-41.01-155.79,0-76.39,25.24-142.84,75.74-199.35,59.9-67.23,137.87-100.85,233.88-100.85,50.23,0,97.18,9.29,140.88,27.86,21.6,9.19,42.94,22.25,64.01,39.16,25.4,20.39,27.49,58.31,4.33,81.21Z"/>
  </g>
</svg>