<?xml version="1.0" encoding="UTF-8"?>
<svg id="_图层_2" data-name="图层 2" xmlns="http://www.w3.org/2000/svg" viewBox="0 0 1000 1000">
  <g id="_图层_1-2" data-name="图层 1">
    <path d="M500,77c57.14,0,112.53,11.17,164.63,33.21,50.36,21.3,95.61,51.81,134.48,90.68,38.87,38.87,69.38,84.12,90.68,134.48,22.04,52.1,33.21,107.49,33.21,164.63s-11.17,112.53-33.21,164.63c-21.3,50.36-51.81,95.61-90.68,134.48-38.87,38.87-84.12,69.38-134.48,90.68-52.1,22.04-107.49,33.21-164.63,33.21s-112.53-11.17-164.63-33.21c-50.36-21.3-95.61-51.81-134.48-90.68-38.87-38.87-69.38-84.12-90.68-134.48-22.04-52.1-33.21-107.49-33.21-164.63s11.17-112.53,33.21-164.63c21.3-50.36,51.81-95.61,90.68-134.48,38.87-38.87,84.12-69.38,134.48-90.68,52.1-22.04,107.49-33.21,164.63-33.21M500,0C223.86,0,0,223.86,0,500s223.86,500,500,500,500-223.86,500-500S776.14,0,500,0h0Z"/>
    <path d="M509.61,196.86c-96.01,0-173.97,33.62-233.88,100.85-50.49,56.51-75.74,122.96-75.74,199.35,0,55.72,13.67,107.66,41.01,155.79,27.33,48.14,64.48,85.22,111.45,111.25,46.95,26.03,100.39,39.04,160.3,39.04,55.98,0,104.77-11.91,146.37-35.71,41.6-23.8,75.47-58.33,101.64-103.6,26.16-45.26,39.24-93.13,39.24-143.62-.44-13.56-11.56-24.33-25.13-24.33h-212.04c-29.82,0-54,24.18-54,54h0c0,27.18,22.03,49.21,49.2,49.21h117.96c-15.98,34.01-36.99,59-63.05,74.95-26.06,15.96-58.08,23.94-96.05,23.94-58.4,0-107.51-19.36-147.31-58.08-39.81-38.71-59.71-85.94-59.71-141.66s19.18-99.67,57.54-137.35c38.36-37.67,85.95-56.51,142.77-56.51,50.05,0,95.32,15.26,135.8,45.79,9.93,7.49,21.66,11.15,33.36,11.15,14.34,0,28.64-5.51,39.48-16.23,23.16-22.9,21.07-60.82-4.33-81.21-21.07-16.91-42.4-29.97-64.01-39.16-43.69-18.57-90.65-27.86-140.88-27.86h0Z"/>
  </g>
</svg>